<?xml version="1.0" encoding="UTF-8"?>
<svg xmlns="http://www.w3.org/2000/svg" xmlns:xlink="http://www.w3.org/1999/xlink" viewBox="0 0 43.06 43.06">
  <defs>
    <style>
      .cls-1 {
        filter: url(#outer-glow-1);
      }

      .cls-1, .cls-2 {
        fill: #5bcd5a;
      }

      .cls-3 {
        fill: #acb6c1;
      }

      .cls-4 {
        fill: none;
      }

      .cls-5 {
        fill: url(#linear-gradient-4);
      }

      .cls-6 {
        fill: url(#radial-gradient);
      }

      .cls-7 {
        fill: url(#linear-gradient-2);
        opacity: .39;
      }

      .cls-7, .cls-8 {
        mix-blend-mode: multiply;
      }

      .cls-9, .cls-8 {
        fill: url(#linear-gradient-3);
      }

      .cls-10 {
        isolation: isolate;
      }

      .cls-2 {
        filter: url(#outer-glow-2);
      }

      .cls-11 {
        fill: url(#linear-gradient);
      }

      .cls-12 {
        clip-path: url(#clippath);
      }

      .cls-8 {
        opacity: .36;
      }
    </style>
    <linearGradient id="linear-gradient" x1="8.52" y1="38.77" x2="34.22" y2="4.73" gradientUnits="userSpaceOnUse">
      <stop offset="0" stop-color="#aeb9c4"/>
      <stop offset=".2" stop-color="#c3ccd5"/>
      <stop offset=".44" stop-color="#d4dbe2"/>
      <stop offset=".69" stop-color="#dee5ea"/>
      <stop offset="1" stop-color="#e2e8ed"/>
    </linearGradient>
    <clipPath id="clippath">
      <path class="cls-4" d="M43.06,21.53c0,11.89-9.64,21.53-21.53,21.53-3.43,0-6.67-.8-9.55-2.23-1.61-.8-3.11-1.79-4.46-2.95-1.51-1.3-2.84-2.8-3.95-4.46-2.26-3.41-3.58-7.5-3.58-11.9C0,9.64,9.64,0,21.53,0s21.53,9.64,21.53,21.53Z"/>
    </clipPath>
    <linearGradient id="linear-gradient-2" x1="32.72" y1="43.91" x2="13.06" y2="43.2" xlink:href="#linear-gradient"/>
    <linearGradient id="linear-gradient-3" x1="4.93" y1="32.76" x2="2.65" y2="29.89" gradientUnits="userSpaceOnUse">
      <stop offset="0" stop-color="#aeb9c4"/>
      <stop offset="1" stop-color="#e2e8ed"/>
    </linearGradient>
    <linearGradient id="linear-gradient-4" x1="14.15" y1="34.23" x2="27.43" y2="6.53" gradientUnits="userSpaceOnUse">
      <stop offset="0" stop-color="#313a43"/>
      <stop offset="1" stop-color="#000"/>
    </linearGradient>
    <radialGradient id="radial-gradient" cx="29.75" cy="8.48" fx="29.75" fy="8.48" r="31.06" gradientUnits="userSpaceOnUse">
      <stop offset="0" stop-color="#222a33"/>
      <stop offset=".15" stop-color="#1d252d"/>
      <stop offset=".73" stop-color="#0f171e"/>
    </radialGradient>
    <filter id="outer-glow-1" x="10.57" y="10.81" width="11.28" height="14.16" filterUnits="userSpaceOnUse">
      <feOffset dx="0" dy="0"/>
      <feGaussianBlur result="blur" stdDeviation="1"/>
      <feFlood flood-color="#16f70f" flood-opacity=".54"/>
      <feComposite in2="blur" operator="in"/>
      <feComposite in="SourceGraphic"/>
    </filter>
    <filter id="outer-glow-2" x="21.77" y="10.53" width="12" height="15" filterUnits="userSpaceOnUse">
      <feOffset dx="0" dy="0"/>
      <feGaussianBlur result="blur-2" stdDeviation="1"/>
      <feFlood flood-color="#16f70f" flood-opacity=".54"/>
      <feComposite in2="blur-2" operator="in"/>
      <feComposite in="SourceGraphic"/>
    </filter>
  </defs>
  <g class="cls-10">
    <g id="Layer_2" data-name="Layer 2">
      <g id="Layer_1-2" data-name="Layer 1">
        <g>
          <path class="cls-11" d="M43.06,21.53c0,11.89-9.64,21.53-21.53,21.53-3.43,0-6.67-.8-9.55-2.23-1.61-.8-3.11-1.79-4.46-2.95-1.51-1.3-2.84-2.8-3.95-4.46-2.26-3.41-3.58-7.5-3.58-11.9C0,9.64,9.64,0,21.53,0s21.53,9.64,21.53,21.53Z"/>
          <g class="cls-12">
            <ellipse class="cls-7" cx="23.82" cy="43.59" rx="17.14" ry="5.68"/>
          </g>
          <path class="cls-9" d="M3.31,25.23s-3.57,6.93-2.62,7.98c.58.63,1.61.76,2.35.76.48,0,.96-.11,1.39-.32l4.2-2"/>
          <path class="cls-8" d="M3.31,25.23s-3.57,6.93-2.62,7.98c.58.63,1.61.76,2.35.76.48,0,.96-.11,1.39-.32l4.2-2"/>
          <path class="cls-3" d="M21.19,3.17C10.22,3.17,1.32,10.59,1.32,19.74c0,2.26.55,4.41,1.54,6.37l-1,3.86c-.26.94.18,1.77,1.39,1.89l4.79.09c1.45,1.05,3.23,2.23,5,2.9,2.49.94,5.25,1.46,8.16,1.46,10.97,0,19.87-7.42,19.87-16.57S32.17,3.17,21.19,3.17Z"/>
          <path class="cls-5" d="M21.19,3.62C10.52,3.62,1.87,10.75,1.87,19.54c0,2.05.48,4.01,1.34,5.81.1.2.12.43.06.64l-1.01,3.65c-.25.9.44,1.79,1.4,1.81l4.61.09c.18,0,.35.06.5.16,1.35.94,2.86,1.74,4.5,2.35,2.42.9,5.11,1.4,7.93,1.4,10.67,0,19.32-7.12,19.32-15.91S31.86,3.62,21.19,3.62Z"/>
          <path class="cls-6" d="M21.19,5.54c-9.39,0-16.99,6.27-16.99,14,0,1.81.42,3.53,1.18,5.12.08.17.1.37.05.55l-.89,3.22c-.22.79.38,1.57,1.23,1.59l4.06.08c.16,0,.3.05.43.14,1.19.83,2.52,1.53,3.96,2.07,2.13.79,4.49,1.23,6.98,1.23,9.39,0,16.99-6.27,16.99-14s-7.61-14-16.99-14Z"/>
        </g>
        <rect class="cls-1" x="13.79" y="14.04" width="4.94" height="7.83" rx="2.47" ry="2.47"/>
        <rect class="cls-2" x="24.94" y="14.04" width="4.94" height="7.83" rx="2.47" ry="2.47"/>
      </g>
    </g>
  </g>
</svg>